<svg width="15" height="17" viewBox="0 0 15 17" fill="none" xmlns="http://www.w3.org/2000/svg">
<g clip-path="url(#clip0)">
<path d="M15 5.62503C15 8.73163 12.6915 11.25 9.84375 11.25C9.51504 11.25 9.19365 11.2161 8.88202 11.1519L8.17854 12.0153C8.11258 12.0962 8.03164 12.161 7.94106 12.2054C7.85048 12.2498 7.75231 12.2727 7.65302 12.2727H6.5625V13.5511C6.5625 13.9748 6.2477 14.3182 5.85938 14.3182H4.6875V15.5966C4.6875 16.0202 4.3727 16.3636 3.98438 16.3636H0.703125C0.314795 16.3636 0 16.0202 0 15.5966V13.1018C0 12.8984 0.0740918 12.7033 0.205928 12.5594L4.94622 7.38818C4.77855 6.83354 4.6875 6.24091 4.6875 5.625C4.6875 2.5184 6.99601 3.19605e-05 9.84372 3.05302e-10C12.6998 -3.19599e-05 15 2.50923 15 5.62503ZM9.84375 4.09091C9.84375 4.93817 10.4733 5.625 11.25 5.625C12.0267 5.625 12.6562 4.93817 12.6562 4.09091C12.6562 3.24364 12.0267 2.55682 11.25 2.55682C10.4733 2.55682 9.84375 3.24364 9.84375 4.09091Z" fill="#CCCCCC"/>
</g>
<defs>
<clipPath id="clip0">
<rect width="15" height="16.3636" fill="white"/>
</clipPath>
</defs>
</svg>
