<svg width="15" height="17" viewBox="0 0 15 17" fill="none" xmlns="http://www.w3.org/2000/svg">
<g clip-path="url(#clip0)">
<path d="M7.5 9.20455C9.8291 9.20455 11.7188 7.14311 11.7188 4.60227C11.7188 2.06143 9.8291 0 7.5 0C5.1709 0 3.28125 2.06143 3.28125 4.60227C3.28125 7.14311 5.1709 9.20455 7.5 9.20455ZM11.25 10.2273H9.63574C8.98535 10.5533 8.26172 10.7386 7.5 10.7386C6.73828 10.7386 6.01758 10.5533 5.36426 10.2273H3.75C1.67871 10.2273 0 12.0586 0 14.3182V14.8295C0 15.6765 0.629883 16.3636 1.40625 16.3636H13.5938C14.3701 16.3636 15 15.6765 15 14.8295V14.3182C15 12.0586 13.3213 10.2273 11.25 10.2273Z" fill="#CCCCCC"/>
</g>
<defs>
<clipPath id="clip0">
<rect width="15" height="16.3636" fill="white"/>
</clipPath>
</defs>
</svg>
